ffmpeg started on 2016-12-01 at 16:43:48
Report written to "Output/x264/results/ffmpeg/old_town_cross_2160p50slow5000k.log"
Command line:
Tools/ffmpeg/ffmpeg -benchmark -y -i Input/y4m/old_town_cross_2160p50.y4m -c:v libx264 -preset slow -b:v 5000k -an Output/x264/encoded/old_town_cross_2160p50slow5000k.mkv
ffmpeg version N-82227-gdb23fde Copyright (c) 2000-2016 the FFmpeg developers
  built with gcc 5.4.0 (Ubuntu 5.4.0-6ubuntu1~16.04.2) 20160609
  configuration: --prefix=/home/jaroslav/ffmpeg_build --pkg-config-flags=--static --extra-cflags=-I/home/jaroslav/ffmpeg_build/include --extra-ldflags=-L/home/jaroslav/ffmpeg_build/lib --bindir=/home/jaroslav/bin --enable-gpl --enable-libass --enable-libfdk-aac --enable-libfreetype --enable-libmp3lame --enable-libopus --enable-libtheora --enable-libvorbis --enable-libvpx --enable-libx264 --enable-libx265 --enable-nvenc --enable-libmfx --enable-libxvid --enable-libgsm --enable-libopencore-amrnb --enable-version3 --enable-nonfree
  libavutil      55. 35.100 / 55. 35.100
  libavcodec     57. 66.101 / 57. 66.101
  libavformat    57. 57.100 / 57. 57.100
  libavdevice    57.  2.100 / 57.  2.100
  libavfilter     6. 66.100 /  6. 66.100
  libswscale      4.  3.100 /  4.  3.100
  libswresample   2.  4.100 /  2.  4.100
  libpostproc    54.  2.100 / 54.  2.100
Input #0, yuv4mpegpipe, from 'Input/y4m/old_town_cross_2160p50.y4m':
  Duration: 00:00:10.00, start: 0.000000, bitrate: 4976642 kb/s
    Stream #0:0: Video: rawvideo (I420 / 0x30323449), yuv420p(progressive), 3840x2160, SAR 1:1 DAR 16:9, 50 fps, 50 tbr, 50 tbn, 50 tbc
[libx264 @ 0x30dc120] using SAR=1/1
[libx264 @ 0x30dc120] using cpu capabilities: MMX2 SSE2Fast SSSE3 SSE4.2 AVX FMA3 AVX2 LZCNT BMI2
[libx264 @ 0x30dc120] profile High, level 5.2
[libx264 @ 0x30dc120] 264 - core 148 - H.264/MPEG-4 AVC codec - Copyleft 2003-2016 - http://www.videolan.org/x264.html - options: cabac=1 ref=5 deblock=1:0:0 analyse=0x3:0x113 me=hex subme=8 psy=1 psy_rd=1.00:0.00 mixed_ref=1 me_range=16 chroma_me=1 trellis=2 8x8dct=1 cqm=0 deadzone=21,11 fast_pskip=1 chroma_qp_offset=-2 threads=6 lookahead_threads=1 sliced_threads=0 nr=0 decimate=1 interlaced=0 bluray_compat=0 constrained_intra=0 bframes=3 b_pyramid=2 b_adapt=1 b_bias=0 direct=3 weightb=1 open_gop=0 weightp=2 keyint=250 keyint_min=25 scenecut=40 intra_refresh=0 rc_lookahead=50 rc=abr mbtree=1 bitrate=5000 ratetol=1.0 qcomp=0.60 qpmin=0 qpmax=69 qpstep=4 ip_ratio=1.40 aq=1:1.00
Output #0, matroska, to 'Output/x264/encoded/old_town_cross_2160p50slow5000k.mkv':
  Metadata:
    encoder         : Lavf57.57.100
    Stream #0:0: Video: h264 (libx264) (H264 / 0x34363248), yuv420p, 3840x2160 [SAR 1:1 DAR 16:9], q=-1--1, 5000 kb/s, 50 fps, 1k tbn, 50 tbc
    Metadata:
      encoder         : Lavc57.66.101 libx264
    Side data:
      cpb: bitrate max/min/avg: 0/0/5000000 buffer size: 0 vbv_delay: -1
Stream mapping:
  Stream #0:0 -> #0:0 (rawvideo (native) -> h264 (libx264))
Press [q] to stop, [?] for help
frame=   57 fps= 18 q=0.0 size=       0kB time=00:00:00.00 bitrate=N/A speed=   0x    frame=   62 fps= 17 q=40.0 size=       1kB time=-00:00:00.01 bitrate=N/A speed=N/A    frame=   70 fps= 17 q=47.0 size=       1kB time=00:00:00.14 bitrate=  41.6kbits/s speed=0.0336x    frame=   78 fps= 16 q=42.0 size=       1kB time=00:00:00.30 bitrate=  19.5kbits/s speed=0.0634x    frame=   84 fps= 16 q=41.0 size=       1kB time=00:00:00.42 bitrate=  13.9kbits/s speed=0.0802x    frame=   92 fps= 16 q=40.0 size=       1kB time=00:00:00.58 bitrate=  10.1kbits/s speed=0.0979x    frame=   98 fps= 15 q=39.0 size=       1kB time=00:00:00.70 bitrate=   8.4kbits/s speed=0.108x    frame=  104 fps= 15 q=39.0 size=       1kB time=00:00:00.82 bitrate=   7.2kbits/s speed=0.116x    frame=  111 fps= 15 q=39.0 size=       1kB time=00:00:00.96 bitrate=   6.1kbits/s speed=0.126x    frame=  116 fps= 14 q=38.0 size=       1kB time=00:00:01.06 bitrate=   5.5kbits/s speed=0.13x    frame=  123 fps= 14 q=38.0 size=       1kB time=00:00:01.20 bitrate=   4.9kbits/s speed=0.135x    frame=  129 fps= 14 q=38.0 size=       1kB time=00:00:01.32 bitrate=   4.4kbits/s speed=0.14x    frame=  135 fps= 14 q=38.0 size=       1kB time=00:00:01.44 bitrate=   4.1kbits/s speed=0.144x    frame=  140 fps= 13 q=38.0 size=       1kB time=00:00:01.54 bitrate=   3.8kbits/s speed=0.147x    frame=  145 fps= 13 q=37.0 size=       1kB time=00:00:01.64 bitrate=   3.6kbits/s speed=0.148x    frame=  151 fps= 13 q=37.0 size=       1kB time=00:00:01.76 bitrate=   3.3kbits/s speed=0.152x    frame=  156 fps= 13 q=37.0 size=       1kB time=00:00:01.86 bitrate=   3.2kbits/s speed=0.154x    frame=  162 fps= 13 q=37.0 size=       1kB time=00:00:01.98 bitrate=   3.0kbits/s speed=0.157x    frame=  167 fps= 13 q=37.0 size=       1kB time=00:00:02.08 bitrate=   2.8kbits/s speed=0.157x    frame=  172 fps= 12 q=37.0 size=       1kB time=00:00:02.18 bitrate=   2.7kbits/s speed=0.158x    frame=  179 fps= 12 q=37.0 size=       1kB time=00:00:02.32 bitrate=   2.5kbits/s speed=0.16x    frame=  185 fps= 12 q=37.0 size=       1kB time=00:00:02.44 bitrate=   2.4kbits/s speed=0.162x    frame=  191 fps= 12 q=37.0 size=       1kB time=00:00:02.56 bitrate=   2.3kbits/s speed=0.165x    frame=  195 fps= 12 q=37.0 size=       1kB time=00:00:02.64 bitrate=   2.2kbits/s speed=0.163x    frame=  202 fps= 12 q=37.0 size=       1kB time=00:00:02.78 bitrate=   2.1kbits/s speed=0.166x    frame=  207 fps= 12 q=37.0 size=       1kB time=00:00:02.88 bitrate=   2.0kbits/s speed=0.167x    frame=  212 fps= 12 q=37.0 size=       1kB time=00:00:02.98 bitrate=   2.0kbits/s speed=0.167x    frame=  217 fps= 12 q=37.0 size=       1kB time=00:00:03.08 bitrate=   1.9kbits/s speed=0.168x    frame=  222 fps= 12 q=37.0 size=       1kB time=00:00:03.18 bitrate=   1.8kbits/s speed=0.169x    frame=  227 fps= 12 q=36.0 size=       1kB time=00:00:03.28 bitrate=   1.8kbits/s speed=0.169x    frame=  233 fps= 12 q=36.0 size=       1kB time=00:00:03.40 bitrate=   1.7kbits/s speed=0.17x    frame=  237 fps= 12 q=36.0 size=       1kB time=00:00:03.48 bitrate=   1.7kbits/s speed=0.17x    frame=  243 fps= 12 q=36.0 size=       1kB time=00:00:03.60 bitrate=   1.6kbits/s speed=0.171x    frame=  249 fps= 12 q=36.0 size=       1kB time=00:00:03.72 bitrate=   1.6kbits/s speed=0.172x    frame=  254 fps= 11 q=36.0 size=       1kB time=00:00:03.82 bitrate=   1.5kbits/s speed=0.172x    frame=  260 fps= 11 q=36.0 size=       1kB time=00:00:03.94 bitrate=   1.5kbits/s speed=0.172x    frame=  267 fps= 11 q=36.0 size=       1kB time=00:00:04.08 bitrate=   1.4kbits/s speed=0.173x    frame=  272 fps= 11 q=36.0 size=       1kB time=00:00:04.18 bitrate=   1.4kbits/s speed=0.167x    frame=  273 fps= 11 q=36.0 size=       1kB time=00:00:04.20 bitrate=   1.4kbits/s speed=0.163x    frame=  275 fps= 10 q=37.0 size=       1kB time=00:00:04.24 bitrate=   1.4kbits/s speed=0.159x    frame=  279 fps= 10 q=37.0 size=       1kB time=00:00:04.32 bitrate=   1.4kbits/s speed=0.159x    frame=  283 fps= 10 q=37.0 size=       1kB time=00:00:04.40 bitrate=   1.3kbits/s speed=0.159x    frame=  287 fps= 10 q=37.0 size=       1kB time=00:00:04.48 bitrate=   1.3kbits/s speed=0.159x    frame=  291 fps= 10 q=37.0 size=       1kB time=00:00:04.56 bitrate=   1.3kbits/s speed=0.159x    frame=  295 fps= 10 q=37.0 size=       1kB time=00:00:04.64 bitrate=   1.3kbits/s speed=0.159x    frame=  299 fps= 10 q=37.0 size=       1kB time=00:00:04.72 bitrate=   1.2kbits/s speed=0.159x    frame=  303 fps= 10 q=37.0 size=       1kB time=00:00:04.80 bitrate=   1.2kbits/s speed=0.159x    frame=  310 fps= 10 q=37.0 size=    2792kB time=00:00:04.94 bitrate=4628.9kbits/s speed=0.16x    frame=  311 fps=9.9 q=37.0 size=    2792kB time=00:00:04.96 bitrate=4610.2kbits/s speed=0.158x    frame=  318 fps= 10 q=38.0 size=    2792kB time=00:00:05.10 bitrate=4483.7kbits/s speed=0.16x    frame=  325 fps= 10 q=38.0 size=    2792kB time=00:00:05.24 bitrate=4363.9kbits/s speed=0.161x    frame=  329 fps= 10 q=38.0 size=    2792kB time=00:00:05.32 bitrate=4298.3kbits/s speed=0.161x    frame=  336 fps= 10 q=37.0 size=    2792kB time=00:00:05.46 bitrate=4188.1kbits/s speed=0.163x    frame=  341 fps= 10 q=37.0 size=    2792kB time=00:00:05.56 bitrate=4112.8kbits/s speed=0.163x    frame=  346 fps= 10 q=37.0 size=    2792kB time=00:00:05.66 bitrate=4040.2kbits/s speed=0.163x    frame=  352 fps= 10 q=37.0 size=    2792kB time=00:00:05.78 bitrate=3956.3kbits/s speed=0.164x    frame=  357 fps= 10 q=37.0 size=    2792kB time=00:00:05.88 bitrate=3889.0kbits/s speed=0.164x    frame=  363 fps= 10 q=37.0 size=    2792kB time=00:00:06.00 bitrate=3811.3kbits/s speed=0.165x    frame=  368 fps= 10 q=37.0 size=    2792kB time=00:00:06.10 bitrate=3748.8kbits/s speed=0.165x    frame=  374 fps= 10 q=37.0 size=    2792kB time=00:00:06.22 bitrate=3676.5kbits/s speed=0.166x    frame=  379 fps= 10 q=37.0 size=    2792kB time=00:00:06.32 bitrate=3618.3kbits/s speed=0.166x    frame=  383 fps=9.9 q=37.0 size=    2792kB time=00:00:06.40 bitrate=3573.1kbits/s speed=0.166x    frame=  389 fps=9.9 q=37.0 size=    2792kB time=00:00:06.52 bitrate=3507.3kbits/s speed=0.167x    frame=  393 fps=9.9 q=37.0 size=    2792kB time=00:00:06.60 bitrate=3464.8kbits/s speed=0.166x    frame=  400 fps=9.9 q=37.0 size=    2792kB time=00:00:06.74 bitrate=3392.9kbits/s speed=0.167x    frame=  407 fps=9.9 q=37.0 size=    2792kB time=00:00:06.88 bitrate=3323.8kbits/s speed=0.168x    frame=  412 fps=9.9 q=37.0 size=    2792kB time=00:00:06.98 bitrate=3276.2kbits/s speed=0.167x    frame=  418 fps=9.9 q=37.0 size=    2792kB time=00:00:07.10 bitrate=3220.9kbits/s speed=0.168x    frame=  424 fps=9.9 q=37.0 size=    2792kB time=00:00:07.22 bitrate=3167.3kbits/s speed=0.168x    frame=  431 fps=9.9 q=37.0 size=    2792kB time=00:00:07.36 bitrate=3107.1kbits/s speed=0.169x    frame=  438 fps=9.9 q=37.0 size=    2792kB time=00:00:07.50 bitrate=3049.1kbits/s speed=0.169x    frame=  442 fps=9.9 q=37.0 size=    2792kB time=00:00:07.58 bitrate=3016.9kbits/s speed=0.169x    frame=  448 fps=9.8 q=37.0 size=    2792kB time=00:00:07.70 bitrate=2969.9kbits/s speed=0.169x    frame=  455 fps=9.9 q=37.0 size=    2792kB time=00:00:07.84 bitrate=2916.9kbits/s speed=0.17x    frame=  460 fps=9.9 q=37.0 size=    2792kB time=00:00:07.94 bitrate=2880.2kbits/s speed=0.17x    frame=  465 fps=9.8 q=37.0 size=    2792kB time=00:00:08.04 bitrate=2844.3kbits/s speed=0.17x    frame=  472 fps=9.9 q=37.0 size=    2792kB time=00:00:08.18 bitrate=2795.7kbits/s speed=0.171x    frame=  477 fps=9.9 q=37.0 size=    2792kB time=00:00:08.28 bitrate=2761.9kbits/s speed=0.171x    frame=  481 fps=9.8 q=37.0 size=    2792kB time=00:00:08.36 bitrate=2735.5kbits/s speed=0.171x    frame=  488 fps=9.9 q=37.0 size=    2792kB time=00:00:08.50 bitrate=2690.4kbits/s speed=0.172x    frame=  493 fps=9.8 q=37.0 size=    2792kB time=00:00:08.60 bitrate=2659.1kbits/s speed=0.171x    frame=  500 fps=9.8 q=37.0 size=    2792kB time=00:00:08.74 bitrate=2616.6kbits/s speed=0.172x    frame=  500 fps=8.8 q=-1.0 Lsize=    6126kB time=00:00:09.94 bitrate=5047.8kbits/s speed=0.175x    
video:6121kB audio:0kB subtitle:0kB other streams:0kB global headers:0kB muxing overhead: 0.071138%
bench: utime=200.936s
bench: maxrss=2230700kB
[libx264 @ 0x30dc120] frame I:3     Avg QP:33.77  size:200626
[libx264 @ 0x30dc120] frame P:183   Avg QP:35.30  size: 17584
[libx264 @ 0x30dc120] frame B:314   Avg QP:37.74  size:  7795
[libx264 @ 0x30dc120] consecutive B-frames: 16.0%  0.8%  0.0% 83.2%
[libx264 @ 0x30dc120] mb I  I16..4: 32.8% 57.1% 10.0%
[libx264 @ 0x30dc120] mb P  I16..4:  0.1%  0.0%  0.0%  P16..4: 19.1%  1.3%  2.6%  0.0%  0.0%    skip:77.0%
[libx264 @ 0x30dc120] mb B  I16..4:  0.0%  0.0%  0.0%  B16..8: 30.5%  0.1%  0.0%  direct: 0.0%  skip:69.4%  L0:44.6% L1:55.4% BI: 0.0%
[libx264 @ 0x30dc120] final ratefactor: 29.43
[libx264 @ 0x30dc120] 8x8 transform intra:55.3% inter:81.9%
[libx264 @ 0x30dc120] direct mvs  spatial:98.7% temporal:1.3%
[libx264 @ 0x30dc120] coded y,uvDC,uvAC intra: 50.3% 44.6% 20.0% inter: 1.1% 1.6% 0.0%
[libx264 @ 0x30dc120] i16 v,h,dc,p:  7% 20%  3% 70%
[libx264 @ 0x30dc120] i8 v,h,dc,ddl,ddr,vr,hd,vl,hu:  6% 14% 10% 10% 16% 10% 16%  6% 10%
[libx264 @ 0x30dc120] i4 v,h,dc,ddl,ddr,vr,hd,vl,hu:  4%  6%  3% 15% 19% 12% 19%  8% 14%
[libx264 @ 0x30dc120] i8c dc,h,v,p: 15% 62% 15%  8%
[libx264 @ 0x30dc120] Weighted P-Frames: Y:0.5% UV:0.0%
[libx264 @ 0x30dc120] ref P L0: 66.8% 24.1%  6.8%  1.1%  0.9%  0.3%
[libx264 @ 0x30dc120] ref B L0: 90.0%  8.1%  1.6%  0.3%
[libx264 @ 0x30dc120] ref B L1: 97.0%  3.0%
[libx264 @ 0x30dc120] kb/s:5013.90
